<?xml version="1.0" encoding="UTF-8"?>
<svg class="gsndiagram" viewBox="0 0 20716 1628" xmlns="http://www.w3.org/2000/svg">
<defs>
<marker id="supportedby_arrow" markerHeight="9" markerUnits="userSpaceOnUse" markerWidth="10" orient="auto-start-reverse" refX="0" refY="4.5">
<polyline fill="black" points="0 0, 10 4.5, 0 9"/>
</marker>
<marker id="incontextof_arrow" markerHeight="9" markerUnits="userSpaceOnUse" markerWidth="10" orient="auto-start-reverse" refX="0" refY="4.5">
<polyline fill-opacity="0" points="0 0, 10 4.5, 0 9, 0 0" stroke="black" stroke-width="1"/>
</marker>
</defs>
<g class="gsn_module__opt_data_osqar_cjson__static_gsn_safety_case_yaml gsnelem gsnasmp" id="node_a1">
<title>A1</title>
<path class="border" d="M20,127 a555,32,0,1,0,1111,0 a555,32,0,1,0,-1111,0 z" fill-opacity="0" stroke="black" stroke-width="1"/>
<text font-family="Liberation Sans, Arial, sans-serif" font-size="12px" font-weight="bold" x="186" y="119">A1</text>
<text font-family="Liberation Sans, Arial, sans-serif" font-size="12px" x="186" y="137">All integer arithmetic in parsing and printing shall be free of signed overflow, wraparound, and truncation that could produce incorrect JSON values.</text>
<text font-family="Liberation Sans, Arial, sans-serif" font-size="12px" font-weight="bold" x="1125" y="154">A</text>
</g>
<g class="gsn_module__opt_data_osqar_cjson__static_gsn_safety_case_yaml gsnelem gsnasmp" id="node_a10">
<title>A10</title>
<path class="border" d="M1170,127 a577,32,0,1,0,1155,0 a577,32,0,1,0,-1155,0 z" fill-opacity="0" stroke="black" stroke-width="1"/>
<text font-family="Liberation Sans, Arial, sans-serif" font-size="12px" font-weight="bold" x="1342" y="119">A10</text>
<text font-family="Liberation Sans, Arial, sans-serif" font-size="12px" x="1342" y="137">String handling in cJSON shall be safe against buffer overruns. All string operations shall respect buffer boundaries and produce NUL-terminated results.</text>
<text font-family="Liberation Sans, Arial, sans-serif" font-size="12px" font-weight="bold" x="2319" y="154">A</text>
</g>
<g class="gsn_module__opt_data_osqar_cjson__static_gsn_safety_case_yaml gsnelem gsnasmp" id="node_a12">
<title>A12</title>
<path class="border" d="M2364,127 a690,32,0,1,0,1381,0 a690,32,0,1,0,-1381,0 z" fill-opacity="0" stroke="black" stroke-width="1"/>
<text font-family="Liberation Sans, Arial, sans-serif" font-size="12px" font-weight="bold" x="2568" y="119">A12</text>
<text font-family="Liberation Sans, Arial, sans-serif" font-size="12px" x="2568" y="137">cJSON_Utils functions (JSON Patch RFC 6902, JSON Pointer RFC 6901) shall produce correct outputs conforming to their respective RFCs and reject malformed patch/pointer inputs.</text>
<text font-family="Liberation Sans, Arial, sans-serif" font-size="12px" font-weight="bold" x="3739" y="154">A</text>
</g>
<g class="gsn_module__opt_data_osqar_cjson__static_gsn_safety_case_yaml gsnelem gsnasmp" id="node_a2">
<title>A2</title>
<path class="border" d="M3784,127 a485,32,0,1,0,970,0 a485,32,0,1,0,-970,0 z" fill-opacity="0" stroke="black" stroke-width="1"/>
<text font-family="Liberation Sans, Arial, sans-serif" font-size="12px" font-weight="bold" x="3930" y="119">A2</text>
<text font-family="Liberation Sans, Arial, sans-serif" font-size="12px" x="3930" y="137">cJSON shall not contain unreachable dead code, unused variables, or logical contradictions that could indicate dormant defects.</text>
<text font-family="Liberation Sans, Arial, sans-serif" font-size="12px" font-weight="bold" x="4749" y="154">A</text>
</g>
<g class="gsn_module__opt_data_osqar_cjson__static_gsn_safety_case_yaml gsnelem gsnasmp" id="node_a5">
<title>A5</title>
<path class="border" d="M4794,127 a667,32,0,1,0,1334,0 a667,32,0,1,0,-1334,0 z" fill-opacity="0" stroke="black" stroke-width="1"/>
<text font-family="Liberation Sans, Arial, sans-serif" font-size="12px" font-weight="bold" x="4992" y="119">A5</text>
<text font-family="Liberation Sans, Arial, sans-serif" font-size="12px" x="4992" y="137">The cJSON API functions shall validate their input pointer parameters before dereference. NULL pointers passed as cJSON* arguments shall produce deterministic error returns.</text>
<text font-family="Liberation Sans, Arial, sans-serif" font-size="12px" font-weight="bold" x="6123" y="154">A</text>
</g>
<g class="gsn_module__opt_data_osqar_cjson__static_gsn_safety_case_yaml gsnelem gsnasmp" id="node_a7">
<title>A7</title>
<path class="border" d="M6168,127 a455,32,0,1,0,911,0 a455,32,0,1,0,-911,0 z" fill-opacity="0" stroke="black" stroke-width="1"/>
<text font-family="Liberation Sans, Arial, sans-serif" font-size="12px" font-weight="bold" x="6305" y="119">A7</text>
<text font-family="Liberation Sans, Arial, sans-serif" font-size="12px" x="6305" y="137">The cJSON printer shall produce valid JSON text conforming to RFC 8259 for any valid in-memory cJSON object graph.</text>
<text font-family="Liberation Sans, Arial, sans-serif" font-size="12px" font-weight="bold" x="7073" y="154">A</text>
</g>
<g class="gsn_module__opt_data_osqar_cjson__static_gsn_safety_case_yaml gsnelem gsnasmp" id="node_a8">
<title>A8</title>
<path class="border" d="M7118,127 a613,32,0,1,0,1227,0 a613,32,0,1,0,-1227,0 z" fill-opacity="0" stroke="black" stroke-width="1"/>
<text font-family="Liberation Sans, Arial, sans-serif" font-size="12px" font-weight="bold" x="7300" y="119">A8</text>
<text font-family="Liberation Sans, Arial, sans-serif" font-size="12px" x="7300" y="137">The cJSON build system shall be reproducible. A build from source on the qualified toolchain version shall produce bit-identical or semantically equivalent binaries.</text>
<text font-family="Liberation Sans, Arial, sans-serif" font-size="12px" font-weight="bold" x="8339" y="154">A</text>
</g>
<g class="gsn_module__opt_data_osqar_cjson__static_gsn_safety_case_yaml gsnelem gsnasmp" id="node_a9">
<title>A9</title>
<path class="border" d="M8384,127 a469,32,0,1,0,939,0 a469,32,0,1,0,-939,0 z" fill-opacity="0" stroke="black" stroke-width="1"/>
<text font-family="Liberation Sans, Arial, sans-serif" font-size="12px" font-weight="bold" x="8525" y="119">A9</text>
<text font-family="Liberation Sans, Arial, sans-serif" font-size="12px" x="8525" y="137">cJSON shall operate with bounded stack usage. Recursive descent parsing shall be depth-limited to prevent stack overflow.</text>
<text font-family="Liberation Sans, Arial, sans-serif" font-size="12px" font-weight="bold" x="9317" y="154">A</text>
</g>
<g class="gsn_module__opt_data_osqar_cjson__static_gsn_safety_case_yaml gsnelem gsnctxt" id="node_c6">
<title>C6</title>
<path class="border" d="M9372,105 L10572,105 C10582,105,10582,149,10572,149 L9372,149 C9362,149,9362,105,9372,105" fill-opacity="0" stroke="black" stroke-width="1"/>
<text font-family="Liberation Sans, Arial, sans-serif" font-size="12px" font-weight="bold" x="9379" y="125">C6</text>
<text font-family="Liberation Sans, Arial, sans-serif" font-size="12px" x="9379" y="143">The cJSON SEooC qualification baseline is v1.7.19 (identified by git tag and SHA256 of the source archive). All artifacts (requirements, architecture, verification reports, builds) are version-controlled under the OSQAr project.</text>
</g>
<g class="gsn_module__opt_data_osqar_cjson__static_gsn_safety_case_yaml gsnelem gsnctxt" id="node_c7">
<title>C7</title>
<path class="border" d="M10632,105 L11736,105 C11746,105,11746,149,11736,149 L10632,149 C10622,149,10622,105,10632,105" fill-opacity="0" stroke="black" stroke-width="1"/>
<text font-family="Liberation Sans, Arial, sans-serif" font-size="12px" font-weight="bold" x="10639" y="125">C7</text>
<text font-family="Liberation Sans, Arial, sans-serif" font-size="12px" x="10639" y="143">All deviations from requirements, static analysis false positives, and coverage gaps shall be documented as issue records with safety justifications, reviewer sign-off, and traceability to affected requirements.</text>
</g>
<g class="gsn_module__opt_data_osqar_cjson__static_gsn_safety_case_yaml gsnelem gsnctxt" id="node_c8">
<title>C8</title>
<path class="border" d="M11796,105 L13504,105 C13514,105,13514,149,13504,149 L11796,149 C11786,149,11786,105,11796,105" fill-opacity="0" stroke="black" stroke-width="1"/>
<text font-family="Liberation Sans, Arial, sans-serif" font-size="12px" font-weight="bold" x="11803" y="125">C8</text>
<text font-family="Liberation Sans, Arial, sans-serif" font-size="12px" x="11803" y="143">The cJSON SEooC qualification lifecycle follows ISO 26262-10 Clause 6 (SEooC development). The lifecycle encompasses four phases: (1) Assumption of Use definition, (2) Safety Requirements derivation from assumptions, (3) Verification and Validation against requirements, (4) Integration validation in target context.</text>
</g>
<g class="gsn_module__opt_data_osqar_cjson__static_gsn_safety_case_yaml gsnelem gsnctxt" id="node_c2">
<title>C2</title>
<path class="border" d="M15047,20 L16261,20 C16271,20,16271,64,16261,64 L15047,64 C15037,64,15037,20,15047,20" fill-opacity="0" stroke="black" stroke-width="1"/>
<text font-family="Liberation Sans, Arial, sans-serif" font-size="12px" font-weight="bold" x="15054" y="40">C2</text>
<text font-family="Liberation Sans, Arial, sans-serif" font-size="12px" x="15054" y="58">
<tspan class="bold" style="font-weight:bold;">*AoU-4 (Error Handling):*</tspan> The integrator shall check all cJSON return values for error indicators (NULL from parse/create functions, cJSON_False from boolean returns). Unchecked error paths are the integrator's responsibility.</text>
</g>
<g class="gsn_module__opt_data_osqar_cjson__static_gsn_safety_case_yaml gsnelem gsnctxt" id="node_c4">
<title>C4</title>
<path class="border" d="M15256,105 L16052,105 C16062,105,16062,149,16052,149 L15256,149 C15246,149,15246,105,15256,105" fill-opacity="0" stroke="black" stroke-width="1"/>
<text font-family="Liberation Sans, Arial, sans-serif" font-size="12px" font-weight="bold" x="15263" y="125">C4</text>
<text font-family="Liberation Sans, Arial, sans-serif" font-size="12px" x="15263" y="143">
<tspan class="bold" style="font-weight:bold;">*AoU-3 (Threading Model):*</tspan> cJSON is not thread-safe and shall be used from a single thread of control or externally synchronized by the integrator.</text>
</g>
<g class="gsn_module__opt_data_osqar_cjson__static_gsn_safety_case_yaml gsnelem gsnctxt" id="node_c9">
<title>C9</title>
<path class="border" d="M13564,190 L17744,190 C17754,190,17754,234,17744,234 L13564,234 C13554,234,13554,190,13564,190" fill-opacity="0" stroke="black" stroke-width="1"/>
<text font-family="Liberation Sans, Arial, sans-serif" font-size="12px" font-weight="bold" x="13571" y="210">C9</text>
<text font-family="Liberation Sans, Arial, sans-serif" font-size="12px" x="13571" y="228">
<tspan class="bold" style="font-weight:bold;">*SEooC Assumptions of Use (ISO 26262-10:2025 §6.4.3):*</tspan> (1) cJSON is integrated as a stateless library with caller-owned state and a qualified memory allocator provided by the integrator via cJSON_InitHooks. (2) JSON inputs do not exceed CJSON_NESTING_LIMIT (1000) depth; max string length is bounded by available memory; inputs originate from a trusted or integrity-checked source. (3) Single-threaded use or external synchronization by integrator. (4) All cJSON return values are checked by integrator; NULL/cJSON_False indicate errors. (5) Qualification build is reproduced with audited toolchain and compiler flags. See :need:`LM_AOU_CONTEXT`, :need:`LM_AOU_INPUTS`, :need:`LM_AOU_THREADING`, :need:`LM_AOU_ERROR`, :need:`LM_AOU_TOOLCHAIN`.</text>
</g>
<g class="gsn_module__opt_data_osqar_cjson__static_gsn_safety_case_yaml gsnelem gsngoal" id="node_gcjson_safe">
<title>GCJSON_SAFE</title>
<path class="border" d="M17794,105 L19030,105 L19030,149 L17794,149 z" fill-opacity="0" stroke="black" stroke-width="1"/>
<text font-family="Liberation Sans, Arial, sans-serif" font-size="12px" font-weight="bold" x="17801" y="125">GCJSON_SAFE</text>
<text font-family="Liberation Sans, Arial, sans-serif" font-size="12px" x="17801" y="143">cJSON v1.7.19 is sufficiently safe to be integrated as a Safety Element out of Context (SEooC) into an ASIL D automotive system, subject to the Assumptions of Use defined in LM_AOU_CONTEXT through LM_AOU_TOOLCHAIN.</text>
</g>
<g class="gsn_module__opt_data_osqar_cjson__static_gsn_safety_case_yaml gsnelem gsnctxt" id="node_c1">
<title>C1</title>
<path class="border" d="M19295,20 L20471,20 C20481,20,20481,64,20471,64 L19295,64 C19285,64,19285,20,19295,20" fill-opacity="0" stroke="black" stroke-width="1"/>
<text font-family="Liberation Sans, Arial, sans-serif" font-size="12px" font-weight="bold" x="19302" y="40">C1</text>
<text font-family="Liberation Sans, Arial, sans-serif" font-size="12px" x="19302" y="58">
<tspan class="bold" style="font-weight:bold;">*AoU-1 (Integration Context):*</tspan> cJSON is integrated as a stateless library in an ASIL D ECU context. All state is caller-owned (cJSON* pointers). The integrator provides a qualified memory allocator via cJSON_InitHooks.</text>
</g>
<g class="gsn_module__opt_data_osqar_cjson__static_gsn_safety_case_yaml gsnelem gsnctxt" id="node_c3">
<title>C3</title>
<path class="border" d="M19080,105 L20686,105 C20696,105,20696,149,20686,149 L19080,149 C19070,149,19070,105,19080,105" fill-opacity="0" stroke="black" stroke-width="1"/>
<text font-family="Liberation Sans, Arial, sans-serif" font-size="12px" font-weight="bold" x="19087" y="125">C3</text>
<text font-family="Liberation Sans, Arial, sans-serif" font-size="12px" x="19087" y="143">
<tspan class="bold" style="font-weight:bold;">*AoU-2 (Input Constraints):*</tspan> JSON inputs processed through cJSON shall not exceed CJSON_NESTING_LIMIT (1000) depth. Maximum single string length is bounded by available memory. Inputs originate from a trusted or integrity-checked source (validated at system level before reaching cJSON).</text>
</g>
<g class="gsn_module__opt_data_osqar_cjson__static_gsn_safety_case_yaml gsnelem gsnctxt" id="node_c5">
<title>C5</title>
<path class="border" d="M19357,190 L20409,190 C20419,190,20419,234,20409,234 L19357,234 C19347,234,19347,190,19357,190" fill-opacity="0" stroke="black" stroke-width="1"/>
<text font-family="Liberation Sans, Arial, sans-serif" font-size="12px" font-weight="bold" x="19364" y="210">C5</text>
<text font-family="Liberation Sans, Arial, sans-serif" font-size="12px" x="19364" y="228">
<tspan class="bold" style="font-weight:bold;">*AoU-5 (Toolchain):*</tspan> The integrator shall reproduce the qualification build with the audited toolchain version and compiler flags. Binary equivalence or semantic equivalence shall be demonstrated.</text>
</g>
<g class="gsn_module__opt_data_osqar_cjson__static_gsn_safety_case_yaml gsnelem gsnstgy" id="node_s1">
<title>S1</title>
<path class="border" d="M18332,274 L18506,274 L18492,318 L18318,318 z" fill-opacity="0" stroke="black" stroke-width="1"/>
<text font-family="Liberation Sans, Arial, sans-serif" font-size="12px" font-weight="bold" x="18340" y="294">S1</text>
<text font-family="Liberation Sans, Arial, sans-serif" font-size="12px" x="18336" y="312">Argument by 4 safety goals</text>
</g>
<g class="gsn_module__opt_data_osqar_cjson__static_gsn_safety_case_yaml gsnelem gsngoal" id="node_gmemory_safety">
<title>GMEMORY_SAFETY</title>
<path class="border" d="M556,368 L1180,368 L1180,412 L556,412 z" fill-opacity="0" stroke="black" stroke-width="1"/>
<text font-family="Liberation Sans, Arial, sans-serif" font-size="12px" font-weight="bold" x="563" y="388">GMEMORY_SAFETY</text>
<text font-family="Liberation Sans, Arial, sans-serif" font-size="12px" x="563" y="406">cJSON is free from memory errors (heap corruption, use-after-free, double-free, buffer overrun, uninitialized reads).</text>
</g>
<g class="gsn_module__opt_data_osqar_cjson__static_gsn_safety_case_yaml gsnelem gsnasmp" id="node_a3">
<title>A3</title>
<path class="border" d="M1220,390 a562,32,0,1,0,1124,0 a562,32,0,1,0,-1124,0 z" fill-opacity="0" stroke="black" stroke-width="1"/>
<text font-family="Liberation Sans, Arial, sans-serif" font-size="12px" font-weight="bold" x="1388" y="382">A3</text>
<text font-family="Liberation Sans, Arial, sans-serif" font-size="12px" x="1388" y="400">All memory allocations shall be checked for failure. Any failed allocation shall result in a deterministic error return (NULL) without undefined behavior.</text>
<text font-family="Liberation Sans, Arial, sans-serif" font-size="12px" font-weight="bold" x="2339" y="417">A</text>
</g>
<g class="gsn_module__opt_data_osqar_cjson__static_gsn_safety_case_yaml gsnelem gsngoal" id="node_gno_ub">
<title>GNO_UB</title>
<path class="border" d="M2682,368 L3358,368 L3358,412 L2682,412 z" fill-opacity="0" stroke="black" stroke-width="1"/>
<text font-family="Liberation Sans, Arial, sans-serif" font-size="12px" font-weight="bold" x="2689" y="388">GNO_UB</text>
<text font-family="Liberation Sans, Arial, sans-serif" font-size="12px" x="2689" y="406">cJSON does not invoke undefined behavior for any input, including integer overflow, NULL dereference, and malformed data.</text>
</g>
<g class="gsn_module__opt_data_osqar_cjson__static_gsn_safety_case_yaml gsnelem gsnasmp" id="node_a4">
<title>A4</title>
<path class="border" d="M3398,390 a634,32,0,1,0,1268,0 a634,32,0,1,0,-1268,0 z" fill-opacity="0" stroke="black" stroke-width="1"/>
<text font-family="Liberation Sans, Arial, sans-serif" font-size="12px" font-weight="bold" x="3587" y="382">A4</text>
<text font-family="Liberation Sans, Arial, sans-serif" font-size="12px" x="3587" y="400">The library shall not invoke undefined behavior for any input, including malformed JSON, integer overflow in depth/buffer-size parameters, and NULL pointer arguments.</text>
<text font-family="Liberation Sans, Arial, sans-serif" font-size="12px" font-weight="bold" x="4661" y="417">A</text>
</g>
<g class="gsn_module__opt_data_osqar_cjson__static_gsn_safety_case_yaml gsnelem gsngoal" id="node_gparse_safety">
<title>GPARSE_SAFETY</title>
<path class="border" d="M4971,368 L5519,368 L5519,412 L4971,412 z" fill-opacity="0" stroke="black" stroke-width="1"/>
<text font-family="Liberation Sans, Arial, sans-serif" font-size="12px" font-weight="bold" x="4978" y="388">GPARSE_SAFETY</text>
<text font-family="Liberation Sans, Arial, sans-serif" font-size="12px" x="4978" y="406">cJSON correctly parses all valid JSON (RFC 8259) and deterministically rejects all malformed inputs.</text>
</g>
<g class="gsn_module__opt_data_osqar_cjson__static_gsn_safety_case_yaml gsnelem gsnasmp" id="node_a6">
<title>A6</title>
<path class="border" d="M5559,390 a527,32,0,1,0,1055,0 a527,32,0,1,0,-1055,0 z" fill-opacity="0" stroke="black" stroke-width="1"/>
<text font-family="Liberation Sans, Arial, sans-serif" font-size="12px" font-weight="bold" x="5717" y="382">A6</text>
<text font-family="Liberation Sans, Arial, sans-serif" font-size="12px" x="5717" y="400">The cJSON parser shall accept all valid JSON texts as defined by RFC 8259 and reject all malformed inputs with a deterministic error state.</text>
<text font-family="Liberation Sans, Arial, sans-serif" font-size="12px" font-weight="bold" x="6608" y="417">A</text>
</g>
<g class="gsn_module__opt_data_osqar_cjson__static_gsn_safety_case_yaml gsnelem gsngoal" id="node_gverification_complete">
<title>GVERIFICATION_COMPLETE</title>
<path class="border" d="M6653,368 L7291,368 L7291,412 L6653,412 z" fill-opacity="0" stroke="black" stroke-width="1"/>
<text font-family="Liberation Sans, Arial, sans-serif" font-size="12px" font-weight="bold" x="6660" y="388">GVERIFICATION_COMPLETE</text>
<text font-family="Liberation Sans, Arial, sans-serif" font-size="12px" x="6660" y="406">All safety requirements are verified with adequate coverage and documented evidence suitable for ISO 26262-8 audit.</text>
</g>
<g class="gsn_module__opt_data_osqar_cjson__static_gsn_safety_case_yaml gsnelem gsnasmp" id="node_a11">
<title>A11</title>
<path class="border" d="M7331,390 a720,32,0,1,0,1440,0 a720,32,0,1,0,-1440,0 z" fill-opacity="0" stroke="black" stroke-width="1"/>
<text font-family="Liberation Sans, Arial, sans-serif" font-size="12px" font-weight="bold" x="7544" y="382">A11</text>
<text font-family="Liberation Sans, Arial, sans-serif" font-size="12px" x="7544" y="400">All safety requirements shall be traceable to verification activities, and all verification activities shall produce documentation artifacts suitable for ISO 26262-8:2025 Clause 9 (Verification) audit.</text>
<text font-family="Liberation Sans, Arial, sans-serif" font-size="12px" font-weight="bold" x="8766" y="417">A</text>
</g>
<g class="gsn_module__opt_data_osqar_cjson__static_gsn_safety_case_yaml gsnelem gsnsltn" id="node_sn8">
<title>Sn8</title>
<path class="border" d="M20,1001 a422,422,0,1,0,844,0 a422,422,0,1,0,-844,0 z" fill-opacity="0" stroke="black" stroke-width="1"/>
<text font-family="Liberation Sans, Arial, sans-serif" font-size="12px" font-weight="bold" x="34" y="993">Sn8</text>
<text font-family="Liberation Sans, Arial, sans-serif" font-size="12px" x="34" y="1011">Run AddressSanitizer (ASan) and UndefinedBehaviorSanitizer (UBSan) instrumented test builds to detect runtime memory errors and undefined behavior.</text>
</g>
<g class="gsn_module__opt_data_osqar_cjson__static_gsn_safety_case_yaml gsnelem gsnsltn" id="node_sn9">
<title>Sn9</title>
<path class="border" d="M904,1001 a390,390,0,1,0,780,0 a390,390,0,1,0,-780,0 z" fill-opacity="0" stroke="black" stroke-width="1"/>
<text font-family="Liberation Sans, Arial, sans-serif" font-size="12px" font-weight="bold" x="918" y="993">Sn9</text>
<text font-family="Liberation Sans, Arial, sans-serif" font-size="12px" x="918" y="1011">Run Valgrind/Memcheck on the test suite to verify absence of memory leaks, use-after-free, uninitialized reads, and invalid memory accesses.</text>
</g>
<g class="gsn_module__opt_data_osqar_cjson__static_gsn_safety_case_yaml gsnelem gsnsltn" id="node_sn5">
<title>Sn5</title>
<path class="border" d="M1724,1001 a385,385,0,1,0,770,0 a385,385,0,1,0,-770,0 z" fill-opacity="0" stroke="black" stroke-width="1"/>
<text font-family="Liberation Sans, Arial, sans-serif" font-size="12px" font-weight="bold" x="1738" y="993">Sn5</text>
<text font-family="Liberation Sans, Arial, sans-serif" font-size="12px" x="1738" y="1011">Verify NULL-pointer safety by constructing test cases that pass NULL to every public API function and confirming deterministic error returns.</text>
</g>
<g class="gsn_module__opt_data_osqar_cjson__static_gsn_safety_case_yaml gsnelem gsnsltn" id="node_sn6">
<title>Sn6</title>
<path class="border" d="M2534,1001 a468,468,0,1,0,936,0 a468,468,0,1,0,-936,0 z" fill-opacity="0" stroke="black" stroke-width="1"/>
<text font-family="Liberation Sans, Arial, sans-serif" font-size="12px" font-weight="bold" x="2548" y="993">Sn6</text>
<text font-family="Liberation Sans, Arial, sans-serif" font-size="12px" x="2548" y="1011">Audit integer operations in parse_number, print_number, and buffer-size computation for signed overflow and wraparound vulnerabilities. Verify with UBSan integer checks.</text>
</g>
<g class="gsn_module__opt_data_osqar_cjson__static_gsn_safety_case_yaml gsnelem gsnsltn" id="node_sn7">
<title>Sn7</title>
<path class="border" d="M3510,1001 a422,422,0,1,0,844,0 a422,422,0,1,0,-844,0 z" fill-opacity="0" stroke="black" stroke-width="1"/>
<text font-family="Liberation Sans, Arial, sans-serif" font-size="12px" font-weight="bold" x="3524" y="993">Sn7</text>
<text font-family="Liberation Sans, Arial, sans-serif" font-size="12px" x="3524" y="1011">Run AddressSanitizer (ASan) and UndefinedBehaviorSanitizer (UBSan) instrumented test builds to detect runtime memory errors and undefined behavior.</text>
</g>
<g class="gsn_module__opt_data_osqar_cjson__static_gsn_safety_case_yaml gsnelem gsnsltn" id="node_sn1">
<title>Sn1</title>
<path class="border" d="M4394,1001 a431,431,0,1,0,862,0 a431,431,0,1,0,-862,0 z" fill-opacity="0" stroke="black" stroke-width="1"/>
<text font-family="Liberation Sans, Arial, sans-serif" font-size="12px" font-weight="bold" x="4408" y="993">Sn1</text>
<text font-family="Liberation Sans, Arial, sans-serif" font-size="12px" x="4408" y="1011">Fuzz-test the cJSON parser with AFL++ or libFuzzer for a minimum of 24 CPU-hours. All crashes, hangs, and assertion failures shall be triaged and resolved.</text>
</g>
<g class="gsn_module__opt_data_osqar_cjson__static_gsn_safety_case_yaml gsnelem gsnsltn" id="node_sn2">
<title>Sn2</title>
<path class="border" d="M5296,1001 a370,370,0,1,0,740,0 a370,370,0,1,0,-740,0 z" fill-opacity="0" stroke="black" stroke-width="1"/>
<text font-family="Liberation Sans, Arial, sans-serif" font-size="12px" font-weight="bold" x="5310" y="993">Sn2</text>
<text font-family="Liberation Sans, Arial, sans-serif" font-size="12px" x="5310" y="1011">Execute the full cJSON test suite (unit tests for parser, printer, utilities, RFC conformance) and confirm all tests pass with zero failures.</text>
</g>
<g class="gsn_module__opt_data_osqar_cjson__static_gsn_safety_case_yaml gsnelem gsnsltn" id="node_sn3">
<title>Sn3</title>
<path class="border" d="M6116,1001 a378,378,0,1,0,756,0 a378,378,0,1,0,-756,0 z" fill-opacity="0" stroke="black" stroke-width="1"/>
<text font-family="Liberation Sans, Arial, sans-serif" font-size="12px" font-weight="bold" x="6130" y="993">Sn3</text>
<text font-family="Liberation Sans, Arial, sans-serif" font-size="12px" x="6130" y="1011">Measure cyclomatic complexity of all cJSON functions. Functions exceeding McCabe 15 shall be reviewed and justifications documented.</text>
</g>
<g class="gsn_module__opt_data_osqar_cjson__static_gsn_safety_case_yaml gsnelem gsnsltn" id="node_sn4">
<title>Sn4</title>
<path class="border" d="M6912,1001 a539,539,0,1,0,1078,0 a539,539,0,1,0,-1078,0 z" fill-opacity="0" stroke="black" stroke-width="1"/>
<text font-family="Liberation Sans, Arial, sans-serif" font-size="12px" font-weight="bold" x="6926" y="993">Sn4</text>
<text font-family="Liberation Sans, Arial, sans-serif" font-size="12px" x="6926" y="1011">Measure statement and branch coverage of the test suite on the cJSON source. Target: ≥ 90% statement coverage, ≥ 80% branch coverage. Document uncovered branches with safety justifications.</text>
</g>
<path class="gsnedge gsninctxt" d="M18412,105 C18412,75,19883,94,19883,74" fill-opacity="0" marker-end="url(#incontextof_arrow)" stroke="black" stroke-width="1"/>
<path class="gsnedge gsninctxt" d="M18412,105 C18412,75,15654,94,15654,74" fill-opacity="0" marker-end="url(#incontextof_arrow)" stroke="black" stroke-width="1"/>
<path class="gsnedge gsninctxt" d="M19030,127 C19060,127,19040,127,19060,127" fill-opacity="0" marker-end="url(#incontextof_arrow)" stroke="black" stroke-width="1"/>
<path class="gsnedge gsninctxt" d="M17794,127 C17764,127,16092,127,16072,127" fill-opacity="0" marker-end="url(#incontextof_arrow)" stroke="black" stroke-width="1"/>
<path class="gsnedge gsninctxt" d="M18412,149 C18412,179,19883,160,19883,180" fill-opacity="0" marker-end="url(#incontextof_arrow)" stroke="black" stroke-width="1"/>
<path class="gsnedge gsninctxt" d="M18412,149 C18412,179,15654,160,15654,180" fill-opacity="0" marker-end="url(#incontextof_arrow)" stroke="black" stroke-width="1"/>
<path class="gsnedge gsninspby" d="M18412,149 C18412,179,18412,244,18412,264" fill-opacity="0" marker-end="url(#supportedby_arrow)" stroke="black" stroke-width="1"/>
<path class="gsnedge gsninctxt" d="M1180,390 C1210,390,1190,390,1210,390" fill-opacity="0" marker-end="url(#incontextof_arrow)" stroke="black" stroke-width="1"/>
<path class="gsnedge gsninspby" d="M868,412 C868,442,442,549,442,569" fill-opacity="0" marker-end="url(#supportedby_arrow)" stroke="black" stroke-width="1"/>
<path class="gsnedge gsninspby" d="M868,412 C868,442,1294,581,1294,601" fill-opacity="0" marker-end="url(#supportedby_arrow)" stroke="black" stroke-width="1"/>
<path class="gsnedge gsninctxt" d="M3358,390 C3388,390,3368,390,3388,390" fill-opacity="0" marker-end="url(#incontextof_arrow)" stroke="black" stroke-width="1"/>
<path class="gsnedge gsninspby" d="M3020,412 C3020,442,2109,586,2109,606" fill-opacity="0" marker-end="url(#supportedby_arrow)" stroke="black" stroke-width="1"/>
<path class="gsnedge gsninspby" d="M3020,412 C3020,442,3002,503,3002,523" fill-opacity="0" marker-end="url(#supportedby_arrow)" stroke="black" stroke-width="1"/>
<path class="gsnedge gsninspby" d="M3020,412 C3020,442,3932,549,3932,569" fill-opacity="0" marker-end="url(#supportedby_arrow)" stroke="black" stroke-width="1"/>
<path class="gsnedge gsninctxt" d="M5519,390 C5549,390,5529,390,5549,390" fill-opacity="0" marker-end="url(#incontextof_arrow)" stroke="black" stroke-width="1"/>
<path class="gsnedge gsninspby" d="M5245,412 C5245,442,4825,540,4825,560" fill-opacity="0" marker-end="url(#supportedby_arrow)" stroke="black" stroke-width="1"/>
<path class="gsnedge gsninspby" d="M5245,412 C5245,442,5666,601,5666,621" fill-opacity="0" marker-end="url(#supportedby_arrow)" stroke="black" stroke-width="1"/>
<path class="gsnedge gsninctxt" d="M7291,390 C7321,390,7301,390,7321,390" fill-opacity="0" marker-end="url(#incontextof_arrow)" stroke="black" stroke-width="1"/>
<path class="gsnedge gsninspby" d="M6972,412 C6972,442,6494,593,6494,613" fill-opacity="0" marker-end="url(#supportedby_arrow)" stroke="black" stroke-width="1"/>
<path class="gsnedge gsninspby" d="M6972,412 C6972,442,7451,432,7451,452" fill-opacity="0" marker-end="url(#supportedby_arrow)" stroke="black" stroke-width="1"/>
<path class="gsnedge gsninspby" d="M18412,318 C18412,348,868,338,868,358" fill-opacity="0" marker-end="url(#supportedby_arrow)" stroke="black" stroke-width="1"/>
<path class="gsnedge gsninspby" d="M18412,318 C18412,348,3020,338,3020,358" fill-opacity="0" marker-end="url(#supportedby_arrow)" stroke="black" stroke-width="1"/>
<path class="gsnedge gsninspby" d="M18412,318 C18412,348,5245,338,5245,358" fill-opacity="0" marker-end="url(#supportedby_arrow)" stroke="black" stroke-width="1"/>
<path class="gsnedge gsninspby" d="M18412,318 C18412,348,6972,338,6972,358" fill-opacity="0" marker-end="url(#supportedby_arrow)" stroke="black" stroke-width="1"/>
<g class="gsnmodule" id="node_gsn_module">
<title>Module Information</title>
<text font-family="Liberation Sans, Arial, sans-serif" font-size="12px" x="20337" y="1595">Module: _opt_data_OSQAr_cJSON__static_gsn_safety_case_yaml</text>
<text font-family="Liberation Sans, Arial, sans-serif" font-size="12px" x="20337" y="1608">Generated on: 2026-05-12T12:23:36.017446653Z</text>
</g>
</svg>